# xmcd
#
# Track frame offsets:
#	150
#	16060
#	28978
#	47140
#	68685
#	87843
#	108268
#	128095
#	148695
#	170030
#	186710
#	206710
#	219873
#	241955
#	256408
#	273160
#	299953
#	315093
#
# Disc length: 4425 seconds
#
# Revision: 1
# Processed by: cddbd v1.4PL0 Copyright (c) Steve Scherf et al.
# Submitted via: audiograbber 1.81.03
#
DISCID=0f114712
DTITLE=Hoopsnakes - Jump In And Hang On
DYEAR=1900
DGENRE=
TTITLE0=Jump In And Hang On
TTITLE1=As Simple As That
TTITLE2=Can't Seem To Stop Myself
TTITLE3=Love And Mercy
TTITLE4=Wound Up
TTITLE5=Still Rainin'
TTITLE6=Walk Real Slow
TTITLE7=Home Away From Home
TTITLE8=The First Man
TTITLE9=Nothing At All
TTITLE10=Hoopsnake Roll
TTITLE11=I Can't Have You
TTITLE12=Three Shots
TTITLE13=Knockin' Down The Wall
TTITLE14=Doctor, Doctor
TTITLE15=Too Many Rainy Days
TTITLE16=Just About Everything
TTITLE17=Good Time Roll Creole
EXTD=
EXTT0=
EXTT1=
EXTT2=
EXTT3=
EXTT4=
EXTT5=
EXTT6=
EXTT7=
EXTT8=(who ever had the blues)
EXTT9=
EXTT10=
EXTT11=
EXTT12=
EXTT13=
EXTT14=
EXTT15=
EXTT16=
EXTT17=
PLAYORDER=
